<svg xmlns="http://www.w3.org/2000/svg" width="16" height="20" viewBox="0 0 16 20">
  <path id="apple" d="M16,14.6a11.844,11.844,0,0,1-1.413,3q-1.482,2.355-2.952,2.355a5.109,5.109,0,0,1-1.608-.384,4.886,4.886,0,0,0-1.734-.384,4.257,4.257,0,0,0-1.631.4A4,4,0,0,1,5.145,20Q3.4,20,1.688,16.887A12.756,12.756,0,0,1,0,10.841,7.36,7.36,0,0,1,1.3,6.346,3.931,3.931,0,0,1,4.56,4.615a7.331,7.331,0,0,1,2.033.361,7.112,7.112,0,0,0,1.585.361A5.531,5.531,0,0,0,9.82,4.928a6.232,6.232,0,0,1,1.987-.409,4.069,4.069,0,0,1,2.446.781,6.058,6.058,0,0,1,1.195,1.2A7.65,7.65,0,0,0,14.139,7.92a4.42,4.42,0,0,0-.746,2.488,4.727,4.727,0,0,0,.793,2.68A3.523,3.523,0,0,0,16,14.6ZM11.681.5a4.767,4.767,0,0,1-.333,1.634A4.951,4.951,0,0,1,10.28,3.8a3.249,3.249,0,0,1-1.241.866,6.157,6.157,0,0,1-1.195.2,5.659,5.659,0,0,1,.9-3.089A4.548,4.548,0,0,1,11.612,0a1.158,1.158,0,0,1,.029.132,1.158,1.158,0,0,0,.029.132q0,.048.006.12t.006.12Z" fill="#f9f9f9"/>
</svg>
