<svg xmlns="http://www.w3.org/2000/svg" width="14" height="18" viewBox="0 0 14 18">
  <path id="book" d="M2.92,14.725a1.149,1.149,0,0,0-.831.316.446.446,0,0,0,0,.7,1.313,1.313,0,0,0,.831.34h10.5a.616.616,0,0,1,.4.145.5.5,0,0,1,.176.412v.291a1.331,1.331,0,0,1-.428.994,1.434,1.434,0,0,1-1.032.412H1.737A1.668,1.668,0,0,1,.5,17.828,1.638,1.638,0,0,1,0,16.639V2.036A1.667,1.667,0,0,1,.5.823,1.586,1.586,0,0,1,1.737.338h11.38a.929.929,0,0,1,.629.243A.7.7,0,0,1,14,1.188v12.98a.478.478,0,0,1-.176.388.742.742,0,0,1-.4.17H2.92ZM4.078,6.233q0,.291.3.291H9.616q.3,0,.3-.291V4.559a.346.346,0,0,0-.075-.218.221.221,0,0,0-.226-.073H4.38a.278.278,0,0,0-.2.073.385.385,0,0,0-.1.218V6.233Z" transform="translate(0 -0.337)" fill="#313131"/>
</svg>
