<svg id="cart" xmlns="http://www.w3.org/2000/svg" width="19.385" height="18" viewBox="0 0 19.385 18">
  <path id="Path_1018" data-name="Path 1018" d="M13.013,28.444A1.444,1.444,0,1,1,11.569,27,1.444,1.444,0,0,1,13.013,28.444Z" transform="translate(-5.08 -11.888)" fill="#313131"/>
  <path id="Path_1019" data-name="Path 1019" d="M28.763,28.444A1.444,1.444,0,1,1,27.319,27,1.444,1.444,0,0,1,28.763,28.444Z" transform="translate(-10.744 -11.888)" fill="#313131"/>
  <path id="Path_1020" data-name="Path 1020" d="M21.389,7.187a1.058,1.058,0,0,0-.836-.415H6.84L6.564,5.126a.732.732,0,0,0-.71-.626H2.971a.758.758,0,0,0,0,1.515H5.249L7.306,18.264a.732.732,0,0,0,.711.626H19.551a.758.758,0,0,0,0-1.515H8.622L8.367,15.86H19.255a1.1,1.1,0,0,0,1.061-.913l1.3-6.816a1.179,1.179,0,0,0-.226-.943Z" transform="translate(-2.25 -4.5)" fill="#313131"/>
</svg>
