<svg xmlns="http://www.w3.org/2000/svg" width="16" height="14" viewBox="0 0 16 14">
  <path id="filter" d="M19.6,7.015A1.316,1.316,0,0,0,18.35,5.687v0H4.97v0c-.023,0-.046,0-.069,0a1.3,1.3,0,0,0-1.225.888,1.349,1.349,0,0,0,.41,1.478l6.028,6.167v3.837h0a.7.7,0,0,0,.343.573l0,0,1.575.93c.013.01.028.016.042.024l.006,0h0a.668.668,0,0,0,.34.1.675.675,0,0,0,.483-.2.707.707,0,0,0,.2-.495c0-.018,0-.036-.005-.054H13.1V14.223L19.186,8l-.006-.006A1.338,1.338,0,0,0,19.6,7.015ZM8.051,8.345h0v0Z" transform="translate(-3.601 -5.685)" fill="#f6f6f6"/>
</svg>
