<svg id="search" xmlns="http://www.w3.org/2000/svg" width="16.035" height="16.035" viewBox="0 0 16.035 16.035">
  <path id="Path_1010" data-name="Path 1010" d="M3.554,143.628,3,145.712l-2.04.043A8.032,8.032,0,0,1,.9,138.268h0l1.816.333.8,1.805a4.785,4.785,0,0,0,.045,3.222Z" transform="translate(0 -133.938)" fill="#fbbb00"/>
  <path id="Path_1011" data-name="Path 1011" d="M269.329,208.176a8.015,8.015,0,0,1-2.858,7.75h0l-2.288-.117-.324-2.021a4.778,4.778,0,0,0,2.056-2.44h-4.287v-3.172h7.7Z" transform="translate(-253.434 -201.656)" fill="#518ef8"/>
  <path id="Path_1012" data-name="Path 1012" d="M42.59,313.988h0a8.02,8.02,0,0,1-12.081-2.453l2.6-2.127a4.768,4.768,0,0,0,6.871,2.441Z" transform="translate(-29.554 -299.719)" fill="#28b446"/>
  <path id="Path_1013" data-name="Path 1013" d="M40.863,1.846l-2.6,2.126a4.768,4.768,0,0,0-7.029,2.5L28.624,4.33h0A8.019,8.019,0,0,1,40.863,1.846Z" transform="translate(-27.728)" fill="#f14336"/>
</svg>
