<svg xmlns="http://www.w3.org/2000/svg" width="23" height="18" viewBox="0 0 23 18">
  <path id="Icon_awesome-home" data-name="Icon awesome-home" d="M11.194,6.923l-7.361,6.1V19.61a.641.641,0,0,0,.639.643l4.474-.012a.641.641,0,0,0,.636-.643V15.753a.641.641,0,0,1,.639-.643h2.555a.641.641,0,0,1,.639.643V19.6a.645.645,0,0,0,.186.456.637.637,0,0,0,.452.189l4.473.012a.641.641,0,0,0,.639-.643v-6.59l-7.36-6.1A.484.484,0,0,0,11.194,6.923ZM22.822,11.07,19.484,8.3V2.736A.481.481,0,0,0,19,2.254H16.769a.481.481,0,0,0-.479.482V5.653l-3.575-2.96a1.907,1.907,0,0,0-2.436,0L.173,11.07a.484.484,0,0,0-.064.679L1.127,13a.477.477,0,0,0,.675.065l9.392-7.785a.484.484,0,0,1,.611,0L21.2,13.061A.477.477,0,0,0,21.872,13l1.018-1.246a.484.484,0,0,0-.068-.68Z" transform="translate(0.001 -2.253)" fill="#313131"/>
</svg>
