<svg xmlns="http://www.w3.org/2000/svg" width="5.236" height="4.993" viewBox="0 0 5.236 4.993">
  <path id="star" d="M5.236,1.935a.227.227,0,0,1-.082.151L4.012,3.2l.271,1.573a.468.468,0,0,1,0,.063.186.186,0,0,1-.033.112.111.111,0,0,1-.1.046.254.254,0,0,1-.126-.038L2.618,4.213l-1.413.743a.267.267,0,0,1-.126.038.114.114,0,0,1-.1-.046.186.186,0,0,1-.033-.112.514.514,0,0,1,.006-.063L1.224,3.2.079,2.086A.24.24,0,0,1,0,1.935q0-.116.176-.145l1.58-.23L2.464.129Q2.523,0,2.618,0t.154.129L3.48,1.561l1.58.23q.176.028.176.145Z" fill="#ff0f39"/>
</svg>
