<svg xmlns="http://www.w3.org/2000/svg" width="16" height="11" viewBox="0 0 16 11">
  <path id="truck" d="M13.817,3.834,16,6.568V10.01H14.567a1.924,1.924,0,0,1-.648,1.447,2.184,2.184,0,0,1-1.553.611,2.124,2.124,0,0,1-1.535-.611A1.951,1.951,0,0,1,10.2,10.01H5.834a1.924,1.924,0,0,1-.648,1.447,2.184,2.184,0,0,1-1.553.611A2.124,2.124,0,0,1,2.1,11.457a1.951,1.951,0,0,1-.631-1.448H0V2.451A1.3,1.3,0,0,1,.427,1.47a1.458,1.458,0,0,1,1.04-.4H11.633V3.834Zm-10.184,7.2a1.1,1.1,0,0,0,.784-.306.979.979,0,0,0,.324-.739.931.931,0,0,0-.324-.724,1.136,1.136,0,0,0-.784-.29,1.075,1.075,0,0,0-.768.29.953.953,0,0,0-.307.724,1,1,0,0,0,.307.739A1.045,1.045,0,0,0,3.633,11.039Zm9.843-6.176H11.633v1.7h3.241Zm-1.109,6.176a1.1,1.1,0,0,0,.784-.306.979.979,0,0,0,.324-.739.931.931,0,0,0-.324-.724,1.136,1.136,0,0,0-.784-.29,1.075,1.075,0,0,0-.768.29.953.953,0,0,0-.307.724,1,1,0,0,0,.307.739A1.045,1.045,0,0,0,12.367,11.039Z" transform="translate(0 -1.068)" fill="#e6e6e6"/>
</svg>
