<svg xmlns="http://www.w3.org/2000/svg" width="14" height="13" viewBox="0 0 14 13">
  <path id="star" d="M14,5.038a.587.587,0,0,1-.219.393l-3.054,2.9.724,4.1a1.185,1.185,0,0,1,.009.164.474.474,0,0,1-.088.291.3.3,0,0,1-.257.119.693.693,0,0,1-.336-.1L7,10.968,3.222,12.9a.728.728,0,0,1-.336.1.309.309,0,0,1-.265-.119.476.476,0,0,1-.089-.291,1.3,1.3,0,0,1,.017-.164l.724-4.1L.21,5.431A.618.618,0,0,1,0,5.038q0-.3.471-.377l4.224-.6L6.588.336Q6.747,0,7,0t.412.336L9.305,4.063l4.224.6q.471.074.471.377Z" fill="#e6e6e6"/>
</svg>
